<svg xmlns="http://www.w3.org/2000/svg" width="152" height="152" viewBox="0 0 152 152">
  <g id="Group_25685" data-name="Group 25685" transform="translate(-1.109 -1.441)">
    <circle id="Ellipse_972" data-name="Ellipse 972" cx="76" cy="76" r="76" transform="translate(1.109 1.441)" fill="#1196d3"/>
    <path id="Path_66848" data-name="Path 66848" d="M82.648,21.743a4.669,4.669,0,0,1-4.5-5.309,4.67,4.67,0,0,1,5.381-4.418c2.695.243,4.314,1.834,4.368,4.026l-2.261-.2a2.256,2.256,0,0,0-2.265-1.913,2.643,2.643,0,0,0-3,2.71,2.644,2.644,0,0,0,2.467,3.2A2.257,2.257,0,0,0,85.4,18.361l2.261.2C87.22,20.712,85.342,21.987,82.648,21.743Z" fill="#fff"/>
    <path id="Path_66849" data-name="Path 66849" d="M91.1,23.152a3.259,3.259,0,0,1-2.581-4.134,3.535,3.535,0,0,1,6.834,1.776A3.255,3.255,0,0,1,91.1,23.152Zm.428-1.648a1.492,1.492,0,0,0,1.884-1.215,1.523,1.523,0,1,0-2.938-.763A1.484,1.484,0,0,0,91.528,21.5Z" fill="#fff"/>
    <path id="Path_66850" data-name="Path 66850" d="M98.059,25.252l-1.859-.79,2.489-5.855,1.858.79-.361.85a2.16,2.16,0,0,1,2.323-.2c1.421.6,1.8,1.71,1.121,3.3l-1.539,3.62-1.87-.8,1.28-3.013c.418-.984.33-1.552-.423-1.872s-1.336.006-1.718.905Z" fill="#fff"/>
    <path id="Path_66851" data-name="Path 66851" d="M107.274,28.118a5.6,5.6,0,0,0,.628.311l-.795,1.4a7.8,7.8,0,0,1-1.223-.573c-.826-.469-1.858-1.3-.809-3.146l1.252-2.2-.872-.495.789-1.389.872.495.932-1.641,1.756,1-.932,1.641,1.25.71-.788,1.389-1.251-.711L107.04,26.74C106.577,27.555,106.838,27.871,107.274,28.118Z" fill="#fff"/>
    <path id="Path_66852" data-name="Path 66852" d="M109.6,31.791c-1.539-1.114-1.583-2.922-.46-4.472a3.061,3.061,0,0,1,4.414-.943,2.177,2.177,0,0,1,.979,2.045l.534-.737,1.625,1.176-3.73,5.153-1.625-1.177.526-.726A2.289,2.289,0,0,1,109.6,31.791Zm1.454-1.017a1.677,1.677,0,1,0-.247-2.248A1.522,1.522,0,0,0,111.055,30.774Z" fill="#fff"/>
    <path id="Path_66853" data-name="Path 66853" d="M115.857,36.986a3.353,3.353,0,1,1,4.647-4.833c1.37,1.318,1.569,2.9.586,4.152l-1.456-1.4a1.106,1.106,0,0,0-.309-1.506,1.394,1.394,0,0,0-2.143.21,1.393,1.393,0,0,0-.126,2.149c.533.513.991.588,1.48.289l1.456,1.4C118.807,38.45,117.227,38.3,115.857,36.986Z" fill="#fff"/>
    <path id="Path_66854" data-name="Path 66854" d="M122.741,41.984a5.59,5.59,0,0,0,.478.511l-1.237,1.031a7.831,7.831,0,0,1-.943-.966c-.608-.73-1.283-1.869.35-3.23l1.947-1.622-.643-.77,1.227-1.023.642.771,1.45-1.208,1.293,1.551-1.45,1.208.921,1.1-1.227,1.023-.921-1.106-1.622,1.352C122.286,41.211,122.42,41.6,122.741,41.984Z" fill="#fff"/>
    <path id="Path_66855" data-name="Path 66855" d="M126.128,50.481c-1.076-2-.694-3.853,1.2-4.872l5.382-2.9,1.007,1.871-5.266,2.832a1.6,1.6,0,1,0,1.513,2.813L135.23,47.4l1.013,1.883-5.382,2.9C128.966,53.195,127.2,52.48,126.128,50.481Z" fill="#fff"/>
    <path id="Path_66856" data-name="Path 66856" d="M129.93,58.831c-.6-1.707-.194-3.119.977-3.528l.661,1.894c-.411.144-.559.642-.354,1.228.143.411.442.628.791.507.275-.1.389-.29.335-.844l-.128-1.367a1.853,1.853,0,0,1,1.231-2.121c1.134-.4,2.239.365,2.778,1.91.591,1.7.274,2.91-.922,3.327l-.657-1.881c.424-.148.54-.538.361-1.049-.143-.411-.438-.616-.725-.516s-.388.331-.343.861l.1,1.393a1.859,1.859,0,0,1-1.2,2.124C131.582,61.2,130.486,60.426,129.93,58.831Z" fill="#fff"/>
    <path id="Path_66857" data-name="Path 66857" d="M142.8,69.312l-2.389.066,1,2.287-1.578.433-.459-2.149-1.7,1.689-.974-1.344,1.862-1.272-2.109-.6L137,66.814l2.092,1.148-.13-2.18,1.629.026-.343,2.42,2.317-.589Z" fill="#fff"/>
    <path id="Path_66858" data-name="Path 66858" d="M132.753,82.566a4.884,4.884,0,1,1,9.733.806c-.224,2.7-1.8,4.327-3.993,4.4l.187-2.262a2.257,2.257,0,0,0,1.9-2.279,2.979,2.979,0,0,0-5.919-.491,2.256,2.256,0,0,0,1.5,2.561l-.188,2.262C133.818,87.131,132.529,85.262,132.753,82.566Z" fill="#fff"/>
    <path id="Path_66859" data-name="Path 66859" d="M131.408,91.027a3.357,3.357,0,1,1,2.39,4.236A3.259,3.259,0,0,1,131.408,91.027Zm1.651.416a1.656,1.656,0,1,0,1.97-1.069A1.492,1.492,0,0,0,133.059,91.443Z" fill="#fff"/>
    <path id="Path_66860" data-name="Path 66860" d="M129.36,98.006l.776-1.864,5.873,2.445-.777,1.865-.852-.356a2.162,2.162,0,0,1,.219,2.322c-.593,1.426-1.7,1.81-3.293,1.145l-3.631-1.512.782-1.876,3.021,1.258c.987.411,1.555.319,1.869-.437s-.015-1.336-.917-1.711Z" fill="#fff"/>
    <path id="Path_66861" data-name="Path 66861" d="M126.56,107.24a5.8,5.8,0,0,0-.306.63l-1.406-.785a7.992,7.992,0,0,1,.564-1.227c.463-.829,1.285-1.867,3.14-.831l2.213,1.235.489-.876,1.394.779-.489.876,1.648.92-.985,1.763-1.647-.92-.7,1.256-1.394-.779.7-1.256L127.936,107C127.118,106.539,126.805,106.8,126.56,107.24Z" fill="#fff"/>
    <path id="Path_66862" data-name="Path 66862" d="M122.906,109.594c1.1-1.548,2.91-1.605,4.469-.494a3.062,3.062,0,0,1,.975,4.407,2.179,2.179,0,0,1-2.038.995l.742.528-1.165,1.634-5.18-3.693,1.164-1.633.731.521A2.289,2.289,0,0,1,122.906,109.594Zm1.028,1.446a1.677,1.677,0,1,0,2.246-.263A1.521,1.521,0,0,0,123.934,111.04Z" fill="#fff"/>
    <path id="Path_66863" data-name="Path 66863" d="M117.756,115.889a3.353,3.353,0,1,1,4.867,4.612c-1.308,1.379-2.889,1.59-4.148.616l1.389-1.466a1.105,1.105,0,0,0,1.5-.321,1.657,1.657,0,0,0-2.376-2.251c-.508.536-.58,1-.277,1.483l-1.389,1.465C116.314,118.85,116.449,117.269,117.756,115.889Z" fill="#fff"/>
    <path id="Path_66864" data-name="Path 66864" d="M112.809,122.808a5.707,5.707,0,0,0-.509.482l-1.039-1.23a7.834,7.834,0,0,1,.959-.95c.726-.613,1.86-1.3,3.232.326l1.636,1.935.766-.648,1.032,1.22-.766.648,1.219,1.441-1.542,1.3-1.219-1.441-1.1.929-1.032-1.22,1.1-.929-1.364-1.612C113.578,122.348,113.192,122.484,112.809,122.808Z" fill="#fff"/>
    <path id="Path_66865" data-name="Path 66865" d="M104.338,126.257c1.991-1.09,3.848-.722,4.881,1.165l2.934,5.36-1.864,1.021-2.871-5.245a1.6,1.6,0,1,0-2.8,1.534l2.871,5.244-1.876,1.027L102.678,131C101.645,129.116,102.347,127.348,104.338,126.257Z" fill="#fff"/>
    <path id="Path_66866" data-name="Path 66866" d="M96.013,130.121c1.7-.608,3.118-.217,3.536.952l-1.89.675c-.146-.411-.646-.554-1.23-.346-.41.147-.625.448-.5.8.1.273.292.386.846.328l1.367-.137a1.853,1.853,0,0,1,2.13,1.215c.4,1.131-.349,2.241-1.89,2.791-1.691.6-2.908.3-3.334-.9l1.877-.671c.151.423.541.536,1.051.354.41-.147.612-.443.51-.729s-.334-.385-.863-.337l-1.392.1a1.859,1.859,0,0,1-2.133-1.186C93.653,131.791,94.422,130.69,96.013,130.121Z" fill="#fff"/>
    <path id="Path_66867" data-name="Path 66867" d="M85.627,143.069l-.084-2.388L83.264,141.7l-.444-1.575,2.144-.475-1.7-1.685,1.337-.983,1.285,1.853.584-2.114,1.613.538-1.133,2.1,2.18-.146-.015,1.629-2.422-.325.606,2.312Z" fill="#fff"/>
    <path id="Path_66868" data-name="Path 66868" d="M72.3,133.118a4.884,4.884,0,1,1-.735,9.739c-2.7-.2-4.34-1.77-4.426-3.96l2.264.17a2.255,2.255,0,0,0,2.293,1.881,2.979,2.979,0,0,0,.447-5.923,2.258,2.258,0,0,0-2.55,1.515l-2.263-.17C67.747,134.217,69.606,132.915,72.3,133.118Z" fill="#fff"/>
    <path id="Path_66869" data-name="Path 66869" d="M63.835,131.838a3.356,3.356,0,1,1-4.218,2.421A3.259,3.259,0,0,1,63.835,131.838Zm-.4,1.654a1.655,1.655,0,1,0,1.083,1.962A1.492,1.492,0,0,0,63.432,133.492Z" fill="#fff"/>
    <path id="Path_66870" data-name="Path 66870" d="M56.834,129.838l1.87.763-2.4,5.891-1.87-.763.349-.855a2.161,2.161,0,0,1-2.32.236c-1.43-.583-1.822-1.683-1.169-3.284l1.485-3.642,1.882.767-1.236,3.031c-.4.99-.307,1.557.451,1.866s1.336-.025,1.7-.93Z" fill="#fff"/>
    <path id="Path_66871" data-name="Path 66871" d="M47.583,127.11a5.667,5.667,0,0,0-.632-.3l.775-1.412a7.965,7.965,0,0,1,1.231.555c.833.457,1.877,1.271.855,3.134l-1.219,2.222.879.482-.768,1.4-.88-.482-.907,1.654-1.771-.971.908-1.655-1.261-.692.768-1.4,1.261.692,1.016-1.851C48.289,127.662,48.023,127.351,47.583,127.11Z" fill="#fff"/>
    <path id="Path_66872" data-name="Path 66872" d="M45.2,123.471c1.555,1.091,1.626,2.9.526,4.465a3.062,3.062,0,0,1-4.4,1.008,2.18,2.18,0,0,1-1.01-2.031l-.523.745-1.642-1.152,3.654-5.207,1.642,1.152-.515.735A2.285,2.285,0,0,1,45.2,123.471Zm-1.439,1.038a1.677,1.677,0,1,0,.28,2.244A1.521,1.521,0,0,0,43.764,124.509Z" fill="#fff"/>
    <path id="Path_66873" data-name="Path 66873" d="M38.87,118.367a3.353,3.353,0,1,1-4.576,4.9c-1.389-1.3-1.611-2.877-.646-4.143l1.476,1.378a1.106,1.106,0,0,0,.332,1.5,1.657,1.657,0,0,0,2.234-2.393,1.1,1.1,0,0,0-1.485-.266l-1.476-1.378C35.9,116.947,37.481,117.07,38.87,118.367Z" fill="#fff"/>
    <path id="Path_66874" data-name="Path 66874" d="M31.915,113.472a5.784,5.784,0,0,0-.485-.5l1.221-1.049a7.86,7.86,0,0,1,.957.953c.619.721,1.31,1.85-.3,3.234l-1.923,1.65.653.762-1.211,1.04-.654-.761-1.432,1.229-1.315-1.532,1.432-1.229-.937-1.092,1.212-1.04.937,1.091,1.6-1.375C32.381,114.237,32.242,113.852,31.915,113.472Z" fill="#fff"/>
    <path id="Path_66875" data-name="Path 66875" d="M28.4,105.027c1.1,1.983.75,3.843-1.129,4.89l-5.338,2.974L20.9,111.034l5.223-2.909a1.6,1.6,0,1,0-1.554-2.791l-5.223,2.91-1.041-1.868,5.339-2.974C25.523,102.355,27.3,103.044,28.4,105.027Z" fill="#fff"/>
    <path id="Path_66876" data-name="Path 66876" d="M24.477,96.729c.62,1.7.24,3.116-.926,3.542l-.688-1.884c.409-.149.549-.65.336-1.233-.15-.409-.452-.621-.8-.5-.272.1-.384.3-.322.849l.148,1.365a1.852,1.852,0,0,1-1.2,2.139c-1.128.412-2.244-.332-2.806-1.869-.616-1.686-.317-2.9.873-3.341l.684,1.872c-.421.154-.531.546-.345,1.054.149.409.447.609.733.505s.382-.337.33-.865l-.116-1.392a1.861,1.861,0,0,1,1.171-2.142C22.789,94.381,23.9,95.142,24.477,96.729Z" fill="#fff"/>
    <path id="Path_66877" data-name="Path 66877" d="M11.451,86.434l2.389-.1-1.032-2.272,1.573-.456.49,2.141,1.672-1.713.993,1.329-1.843,1.3,2.117.569-.525,1.616-2.109-1.117.163,2.179-1.63,0,.307-2.425-2.307.623Z" fill="#fff"/>
    <path id="Path_66878" data-name="Path 66878" d="M21.307,73.046a4.67,4.67,0,0,1-5.209,4.62,4.67,4.67,0,0,1-4.535-5.283c.183-2.7,1.738-4.353,3.928-4.455l-.155,2.264A2.257,2.257,0,0,0,13.473,72.5a2.643,2.643,0,0,0,2.776,2.94A2.643,2.643,0,0,0,19.4,72.9a2.255,2.255,0,0,0-1.533-2.538l.154-2.265C20.174,68.5,21.49,70.347,21.307,73.046Z" fill="#fff"/>
    <path id="Path_66879" data-name="Path 66879" d="M22.524,64.57a3.26,3.26,0,0,1-4.075,2.673,3.536,3.536,0,0,1,1.622-6.873A3.256,3.256,0,0,1,22.524,64.57Zm-1.657-.391a1.491,1.491,0,0,0-1.257-1.856,1.523,1.523,0,1,0-.7,2.954A1.484,1.484,0,0,0,20.867,64.179Z" fill="#fff"/>
    <path id="Path_66880" data-name="Path 66880" d="M24.473,57.548l-.748,1.875-5.908-2.358.748-1.876.858.343a2.162,2.162,0,0,1-.254-2.319c.573-1.434,1.671-1.834,3.276-1.193L26.1,53.478l-.754,1.888-3.039-1.213c-.993-.4-1.559-.3-1.863.464s.035,1.336.943,1.7Z" fill="#fff"/>
    <path id="Path_66881" data-name="Path 66881" d="M27.133,48.278a5.874,5.874,0,0,0,.3-.634l1.417.764a7.791,7.791,0,0,1-.546,1.235c-.451.836-1.257,1.886-3.127.878l-2.231-1.2-.476.882-1.4-.757.476-.883-1.662-.9.959-1.777,1.661.9.683-1.266,1.4.758L23.9,47.541l1.858,1C26.585,48.988,26.9,48.72,27.133,48.278Z" fill="#fff"/>
    <path id="Path_66882" data-name="Path 66882" d="M30.751,45.873c-1.08,1.564-2.886,1.648-4.461.56a3.062,3.062,0,0,1-1.04-4.392,2.177,2.177,0,0,1,2.023-1.025l-.749-.517,1.14-1.651L32.9,42.464l-1.14,1.65-.738-.51A2.286,2.286,0,0,1,30.751,45.873ZM29.7,44.443a1.677,1.677,0,0,0-2.747-1.9,1.677,1.677,0,0,0,2.747,1.9Z" fill="#fff"/>
    <path id="Path_66883" data-name="Path 66883" d="M35.81,39.5a3.353,3.353,0,1,1-4.934-4.54c1.287-1.4,2.865-1.632,4.138-.676l-1.368,1.486a1.1,1.1,0,0,0-1.5.342,1.4,1.4,0,0,0,.256,2.138,1.394,1.394,0,0,0,2.152.079,1.1,1.1,0,0,0,.256-1.487l1.367-1.486C37.208,36.521,37.1,38.1,35.81,39.5Z" fill="#fff"/>
    <path id="Path_66884" data-name="Path 66884" d="M40.655,32.511a5.868,5.868,0,0,0,.5-.489l1.058,1.214a7.936,7.936,0,0,1-.946.964c-.716.624-1.84,1.323-3.236-.279L36.367,32.01l-.756.659-1.049-1.2.756-.659-1.24-1.423L35.6,28.057l1.24,1.423,1.084-.945,1.05,1.2-1.085.945,1.387,1.592C39.893,32.982,40.277,32.84,40.655,32.511Z" fill="#fff"/>
    <path id="Path_66885" data-name="Path 66885" d="M49.074,28.937c-1.975,1.119-3.837.779-4.9-1.093l-3.013-5.316,1.849-1.048,2.948,5.2a1.6,1.6,0,1,0,2.778-1.575l-2.948-5.2,1.86-1.055,3.014,5.316C51.724,26.039,51.049,27.818,49.074,28.937Z" fill="#fff"/>
    <path id="Path_66886" data-name="Path 66886" d="M57.344,24.949c-1.694.634-3.115.263-3.549-.9l1.879-.7c.152.408.654.544,1.235.327.408-.153.619-.457.489-.8-.1-.272-.3-.382-.851-.316l-1.364.158a1.852,1.852,0,0,1-2.147-1.184c-.421-1.125.315-2.246,1.848-2.819,1.681-.629,2.9-.339,3.347.848l-1.867.7c-.157-.42-.549-.527-1.056-.337-.408.152-.606.452-.5.736s.34.38.868.323l1.39-.125a1.86,1.86,0,0,1,2.151,1.154C59.679,23.245,58.926,24.358,57.344,24.949Z" fill="#fff"/>
    <path id="Path_66887" data-name="Path 66887" d="M67.544,11.847l.119,2.387,2.263-1.047.468,1.569-2.138.506,1.726,1.659-1.322,1L67.348,16.09l-.553,2.122L65.174,17.7l1.1-2.116L64.1,15.76l-.009-1.63,2.426.29-.639-2.3Z" fill="#fff"/>
    <circle id="Ellipse_973" data-name="Ellipse 973" cx="40" cy="40" r="40" transform="translate(37.109 37.441)" fill="#fff"/>
    <path id="Path_66888" data-name="Path 66888" d="M77.109,57.441a20.023,20.023,0,1,0,14.136,5.865A20,20,0,0,0,77.109,57.441Zm0,37.1a17.115,17.115,0,1,1,12.082-5.013A17.1,17.1,0,0,1,77.109,94.536Z" fill="#1196d3"/>
    <path id="Path_66889" data-name="Path 66889" d="M77.11,69.176a3.354,3.354,0,0,1,3.35,3.351,1.453,1.453,0,0,0,2.906,0,6.265,6.265,0,0,0-4.8-6.084v-1.35a1.452,1.452,0,1,0-2.9,0v1.35a6.256,6.256,0,0,0,1.453,12.34,3.35,3.35,0,1,1-3.351,3.35,1.453,1.453,0,1,0-2.905,0,6.263,6.263,0,0,0,4.8,6.084v1.574a1.452,1.452,0,1,0,2.9,0V88.217a6.255,6.255,0,0,0-1.452-12.34,3.35,3.35,0,1,1,0-6.7Z" fill="#1196d3"/>
  </g>
</svg>
