<svg xmlns="http://www.w3.org/2000/svg" width="40" height="40" viewBox="0 0 40 40">
  <g id="Group_25686" data-name="Group 25686" transform="translate(-194.205 -107.336)">
    <path id="Path_66890" data-name="Path 66890" d="M214.205,107.336A20.024,20.024,0,1,0,228.34,113.2,20,20,0,0,0,214.205,107.336Zm0,37.094a17.112,17.112,0,1,1,12.082-5.012A17.1,17.1,0,0,1,214.205,144.43Z" fill="#1196d3"/>
    <path id="Path_66891" data-name="Path 66891" d="M214.205,119.071a3.353,3.353,0,0,1,3.35,3.35,1.453,1.453,0,1,0,2.906,0,6.266,6.266,0,0,0-4.8-6.084v-1.349a1.453,1.453,0,0,0-2.906,0v1.349a6.255,6.255,0,0,0,1.453,12.34,3.35,3.35,0,1,1-3.351,3.351,1.452,1.452,0,1,0-2.9,0,6.266,6.266,0,0,0,4.8,6.084v1.574a1.453,1.453,0,0,0,2.906,0v-1.574a6.255,6.255,0,0,0-1.453-12.34,3.351,3.351,0,1,1,0-6.7Z" fill="#1196d3"/>
  </g>
</svg>
