<svg xmlns="http://www.w3.org/2000/svg" width="17.5" height="17.5" viewBox="0 0 17.5 17.5">
  <g id="Group_25690" data-name="Group 25690" transform="translate(-167.055 -75.885)">
    <path id="Path_66901" data-name="Path 66901" d="M178.488,84.692l-3.542,3.542-1.824-1.825a.625.625,0,1,0-.884.884l2.267,2.267a.624.624,0,0,0,.883,0l3.984-3.984a.625.625,0,0,0-.884-.884Z" fill="#1196d3"/>
    <path id="Path_66902" data-name="Path 66902" d="M181.43,77.11h-.938v-.6a.625.625,0,0,0-1.25,0v.6h-6.875v-.6a.625.625,0,0,0-1.25,0v.6h-.937a3.129,3.129,0,0,0-3.125,3.125V90.26a3.129,3.129,0,0,0,3.125,3.125h11.25a3.129,3.129,0,0,0,3.125-3.125V80.235A3.129,3.129,0,0,0,181.43,77.11ZM168.3,80.235a1.877,1.877,0,0,1,1.875-1.875h.937v.6a.625.625,0,0,0,1.25,0v-.6h6.875v.6a.625.625,0,0,0,1.25,0v-.6h.938a1.877,1.877,0,0,1,1.875,1.875v.631h-15Zm13.125,11.9H170.18A1.877,1.877,0,0,1,168.3,90.26V82.116h15V90.26A1.877,1.877,0,0,1,181.43,92.135Z" fill="#1196d3"/>
  </g>
</svg>
