<svg xmlns="http://www.w3.org/2000/svg" width="20" height="20" viewBox="0 0 20 20">
  <g id="Group_25688" data-name="Group 25688" transform="translate(-172.89 -167.08)">
    <path id="Path_66894" data-name="Path 66894" d="M182.89,187.08a10,10,0,1,0-10-10A10.013,10.013,0,0,0,182.89,187.08Zm0-18.667a8.667,8.667,0,1,1-8.667,8.667A8.676,8.676,0,0,1,182.89,168.413Z" fill="#1196d3"/>
    <path id="Path_66895" data-name="Path 66895" d="M185.8,180.267a.667.667,0,0,0,.834-1.04l-3.084-2.467v-5.014a.666.666,0,0,0-1.333,0v5.334a.669.669,0,0,0,.25.52Z" fill="#1196d3"/>
  </g>
</svg>
