<svg xmlns="http://www.w3.org/2000/svg" width="19.999" height="17.194" viewBox="0 0 19.999 17.194">
  <g id="Group_25689" data-name="Group 25689" transform="translate(-198.501 -67.288)">
    <path id="Path_66896" data-name="Path 66896" d="M218.472,77.017h0L214.7,67.536a.392.392,0,0,0-.51-.22h0l-15.319,6.1a.377.377,0,0,0-.157.125.386.386,0,0,0-.209.341V84.09a.392.392,0,0,0,.392.392h16.49a.393.393,0,0,0,.392-.392V78.515l2.478-.987A.392.392,0,0,0,218.472,77.017ZM214.99,83.7h-15.7V74.274h15.7Zm-9.939-10.206,6.574-2.619a3.126,3.126,0,0,0,2.251.97l.655,1.649Zm10.724,4.18V73.882a.393.393,0,0,0-.392-.393h-.007l-.832-2.089a.326.326,0,0,0-.032-.05.387.387,0,0,0-.41-.3,2.349,2.349,0,0,1-2.059-.886.388.388,0,0,0-.5-.088.366.366,0,0,0-.056.01l-8.025,3.2a.389.389,0,0,0-.216.209h-2.437l13.306-5.3,3.486,8.753Z" fill="#1196d3"/>
    <path id="Path_66897" data-name="Path 66897" d="M200.351,81.047a2.347,2.347,0,0,1,1.585,1.582.393.393,0,0,0,.376.281.409.409,0,0,0,.061-.009.454.454,0,0,0,.053.011h9.423a.41.41,0,0,0,.048-.01.365.365,0,0,0,.441-.269v0a2.348,2.348,0,0,1,1.585-1.585.387.387,0,0,0,.269-.432.542.542,0,0,0,.012-.058V77.415c0-.019-.007-.039-.012-.058a.387.387,0,0,0-.269-.432,2.344,2.344,0,0,1-1.585-1.585.388.388,0,0,0-.435-.269.335.335,0,0,0-.055-.011h-9.423a.4.4,0,0,0-.058.011.389.389,0,0,0-.432.27,2.346,2.346,0,0,1-1.585,1.584.387.387,0,0,0-.269.432.394.394,0,0,0-.011.058v3.141a.334.334,0,0,0,.011.055A.39.39,0,0,0,200.351,81.047Zm.505-3.472a3.12,3.12,0,0,0,1.73-1.73h9.1a3.12,3.12,0,0,0,1.73,1.73V80.4a3.116,3.116,0,0,0-1.729,1.73h-9.1a3.117,3.117,0,0,0-1.73-1.73Z" fill="#1196d3"/>
    <path id="Path_66898" data-name="Path 66898" d="M207.137,81.341a2.356,2.356,0,1,0-2.355-2.355A2.355,2.355,0,0,0,207.137,81.341Zm0-3.926a1.57,1.57,0,1,1-1.57,1.571A1.571,1.571,0,0,1,207.137,77.415Z" fill="#1196d3"/>
    <path id="Path_66899" data-name="Path 66899" d="M202.82,79.575a.589.589,0,1,0-.589-.589A.589.589,0,0,0,202.82,79.575Zm0-.785a.2.2,0,1,1-.2.2A.2.2,0,0,1,202.82,78.79Z" fill="#1196d3"/>
    <path id="Path_66900" data-name="Path 66900" d="M211.457,79.574a.588.588,0,1,0-.589-.589A.589.589,0,0,0,211.457,79.574Zm0-.785a.2.2,0,1,1-.2.2A.2.2,0,0,1,211.457,78.789Z" fill="#1196d3"/>
  </g>
</svg>
