<svg xmlns="http://www.w3.org/2000/svg" width="38.959" height="38.661" viewBox="0 0 38.959 38.661">
  <g id="Group_25687" data-name="Group 25687" transform="translate(-220.639 -187.08)">
    <path id="Path_66892" data-name="Path 66892" d="M251.281,205.644c-.99-.1-3.168-.1-3.168-1.485,0-1.88,2.772-4.355,7.227-7.028,1.386-.892,4.258-2.277,4.258-4.158,0-1.485-1.09-2.574-3.367-2.277-2.178.3-5.544,1.782-10,5.543-4.654,3.862-9.009,10.3-9.009,16.632,0,6.435,4.355,12.87,11.385,12.87a10.228,10.228,0,0,0,10.494-10.1C259.1,211.188,256.033,206.041,251.281,205.644Z" fill="#1196d3"/>
    <path id="Path_66893" data-name="Path 66893" d="M237.364,202.861a6.974,6.974,0,0,0-2.667-.783c-.99-.1-3.168-.1-3.168-1.485,0-1.881,2.772-4.356,7.227-7.029,1.386-.891,4.257-2.277,4.257-4.158,0-1.485-1.09-2.574-3.367-2.277-2.178.3-5.544,1.782-10,5.544-4.653,3.861-9.009,10.3-9.009,16.632,0,6.435,4.355,12.87,11.385,12.87a10.935,10.935,0,0,0,4.65-1.031,17.257,17.257,0,0,1-2.126-8.272A20.982,20.982,0,0,1,237.364,202.861Z" fill="#1196d3"/>
  </g>
</svg>
